<svg xmlns="http://www.w3.org/2000/svg" width="361" height="388" viewBox="0 0 361 388">
  <defs>
    <style>
      .cls-1 {
        fill: #bdb2ea;
        fill-rule: evenodd;
      }
    </style>
  </defs>
  <path id="Кольорова_заливка_1" data-name="Кольорова заливка 1" class="cls-1" d="M326,54l4,1q-0.5,2.5-1,5h-4q-0.5-2.5-1-5Zm38,6,5,1c1.53,4.095,2.456,6.155-2,9l-4,2-1-1Q363,65.5,364,60Zm-63,3c9.683,2.394,7.015,8.114,13,12,6.487,4.213,30.6,11.132,39,12a98.677,98.677,0,0,0,8-13c4.305,1.964,1.489,13.11,3,21,14.27,5.759,21.2,23.194,36,19,0.859,9.428,6.173,19.087,9,27,12.737,1.5,16.9-5.671,25-11h3c1.646,5.5,3.478,4.234,0,8-4.088,5.138-14.948,3.777-20,8-4.313,3.6-8.892,8.986-13,13-0.15,15.755,8.291,22.027,18,28,3.583-1.782,1.184.531,3-3-4.678-2.135-13.194-24.857-14-31,8.179,1.364,11.825,7.172,18,11-1.052,11.255-2.562,20.041-4,33,5.894,6.031,10.635,14.583,16,21v6c-11.482,8.384-10.38,18.889-19,30l-2-2c1.727-7.272,7.593-18.353,5-22-7.926-4.612-6.792,7.809-21,6v-6c2.055-1.355,1.609-1.12,3-3-2.715-3.327-4.909-4.871-10-6l-1,1c0.532,9.818,3.764,7.326,5,16l-2,1a15.621,15.621,0,0,0-10-1l-3,11c8.074,3.248,13.19,12.125,23,8l1-4c4.524,2.664,5.754,1.648,10,2q0.5,5.5,1,11-1,2.5-2,5c-13.178,1.731-21.323-.109-29,12-6.593-4.992-6.9-.013-14-1,3.474-2.982,4.18-1.745,5-8l-1-3-15-7c-6.756,3.884-13.839,10.517-22,12q0.5,5.5,1,11l5,2-1,2c-7.086-1.15-7.706-3.141-11,2l2,3c7.627,0.18,8,1.637,11,6l-5,6h-6l-20-21-2,3-1,4c11.4,11.532,33.183,28.5,34,49l-2,3c-5.594.543-6.759,0.308-11-2-3.12-20.074-25-32.437-39-45h-1c-19.6,13.941-35.18,31.271-51,49l-50,49c-10.238,11.639-22.2,30.622-37,37,6.658-18.578,58.343-66.106,74-83,6.966-7.516,25.889-17.985,24-30-16.738.272-24.628-27.644-44-30l-8,11v1c7.435-1.506,7.757-.288,15,2l6,12c-2.585,15.115-64.516,82.246-78,91-7.4-3.574-9.986-7.343-15-13,1.011-11.966,10.938-19.564,17-27l-1-2h-1c-9.741,12.7-22.884,23.859-31,38,4.653,14.966,25.027,26.8,41,31l-4,6-2,1c-18.527-4.756-25.942-23.392-43-29-2.954,4.909-5.905,8.964-13,10v-6c4.964-2.365,6.9-5.7,9-11l-3-3-10,8c4.124-13.584,16.437-22.626,24-33,27.443-37.642,55.905-73.319,84-110q-0.5-3-1-6l-14-1c-2.134-6.625.462-13.136-2-19-13.637-4.98-30.207-5.265-49-5-6.287-14.984-6.648-16.9-17-29,1.489-12.725,2.162-21.99-8-26-0.575-9.238,8.842-17.146,14-25h1q1,3.5,2,7l3-2c2.049-7.385,9.293-14.035,17-16l-2-5c-2.664,2.17-2.795,2.009-4,6-6.35,2-8.045,5.711-13,9h-1v-4c2.347-5.5,1.055-15.031,4-20,3.5-3.679,5.61-.507,11-3,4.186-1.936,15.265-13.2,19-17,4.818-4.9,6.381-14.071,11-19l11,3c7.449-5.874,16.159-7.906,25-13,5.112-2.946,6.309-9.108,12-12,7.114-1.469,8.078,1.7,13,4,10.436-11.115,46.865-1.981,61-4ZM193,72l3,6-2,1h-2l-1-2Q192,74.5,193,72Zm80,2-4,5c-15.125-4.826-28.927-3.992-37,7v1h10c3.969-7.5,38.525,4.656,47-12Zm153,5c7.135,0.083,8.03,1.11,11,5l-4,7c-16.659,3.751-18.76,18.536-33,23v-4C410.5,102.785,421.538,92.341,426,79ZM292,82L275,94c4.421,2.925,5.816,1.049,11,5,4.594-3.776,7.451-9.321,11-14l-1-2Zm17,1c0.08,3.284,4.276,14.619,9,17l6-4,3,4,3-2-2-2c-3.109-4.619-9-9.051-13-13h-6Zm-8,2-6,8,1,3,7,1-7,5v1h12C307.707,94.889,305.645,88.62,301,85Zm91,0c3.591,1.444,2.758,1.7,5,4l-4,4-3-2V90ZM226,87c-1.038,4.232-1.41,1.722,1,6l2,1c-2.421,5.013-4.359,5.853-5,13l8,5c9.047-3.265,18.586-12.212,26-18l-2-3-8-4-5,3c1.3,3.8,1.123,2.88,1,8h-8l-4-3c-0.112-4.406.091-4.935-2-7Zm-17,1-6,4v7h4c1.869-3.564,2.418-3.281,6-5C212.489,88.548,213.409,89.629,209,88Zm9,2-2,1v4l2,2,3-3V93Zm-23,2-13,10q0.5,1,1,2h4l14-10-1-2h-5Zm140,0-1,1,3,2a8.164,8.164,0,0,0,9-1l-2-1ZM138,96c2.042,1.8.707,0.015,2,3h-1l-3-2Zm212,0-5,5v2l15,5c3.687-4.847-.245-8.949-4-12h-6ZM215,99l-10,9-3-6c-7.3,3.665-11.577,8.528-19,11q-1,4.5-2,9l3,7c20.368,0.889,17.149,8.614,32-6-2.837-3.206-3.847-2.492-5-8,5.329-1.14,8.29-1.919,10-7v-6c-1.392-1.923-.1-0.6-2-2Zm45,0c-6.195,7.372-13.21,11.109-23,15v10l12,9,13-5c-0.937-6.594-2.347-9.905,0-15l13,4,8-9v-4l-3-3Zm108,3-1,5c3.149,1.812,2.578,1.437,4,5h4v-3Zm-100,2c1.6,3.068,1.084,1.6,1,6l-1-2C266.613,104.845,266.692,107.78,268,104Zm-88,4-4,2,6,2Q181,110,180,108Zm75,0,4,2-1,2h-3v-4Zm-54,1,9,5-2,3c-7.457,3-8.087,5.2-10,12l-2-2c1.574-5.465.072-8.9-2-13Zm-34,3-13,9v4h3l4-3,4,4-3,2-6,3-4-5q-0.5,1-1,2c-3.421,2.142-4.09,3.364-6,7q0.5,1,1,2c12.228,0.016,16.1,5.532,26,4l8-10c-1.2-3.7-.712-5.876-3-8-4.778-1.463-6.172,1.048-12,2,1.553-5.521,4.537-7.534,9-10q-0.5-1-1-2Zm216,1-6,1,1,3,5,1v-5Zm0,6-2,1v4l4,1,2-2-1-3Zm5,8-1,4,11,15,3-1,1-2C399.051,134.665,395.988,130.138,388,127Zm-154,1c-3.07,2.406-4.488,3.894-9,5l-8-4c-6.965,5.94-13.964,7.755-15,20l4,6c15.853,0.67,17.8,9.328,31,11,1.6-13.758-5.026-19.92-7-32h1c4.769,4.066,8.287,11.01,12,16l2-1q1-5,2-10Zm96,7,1,2C330.576,136.072,331.8,136.324,330,135Zm64,60h-6l-1-2c3.558-.924,5.073-0.256,7-2,1.444-4.381-2.733-3.885-6-6v-1l5-2c-2.974-4.341-3.756-3.208-2-8l2-1c-3.872-3.571-5.1-4-8-9l-5,2-1-2c3.591-4.382,5.218-8.909,3-14-8.635.584-11.777,1.643-20,0l-2-4q0.5-2.5,1-5l8-5v-1c-9.455.729-6.715,2.623-14,0,0.012,5.322-.111,5.9-3,10l-6-2c2.034,2.28,2.526,1.708,4,5-1.984,1.6-1.389,1.3-5,2l-1-4c-3.033,2.691-1.517,3.01-7,4-1.227-3.39-.279-2.016-3-2,2.416,3.355,3.414,5.484,8,7,0.859-4.526-.116-2.975,3-5,0.856,4.571,1.383,3.846,3,7-5.372-.213-5.624-0.561-9,3,1.62,3.06,2.053,3.152,2,6-5.458.037-8.934,0.792-12,3l4,3-2,1c-3.221,2.234-7.487,2.419-11,2l-3-3,8-4-1-1H310c-1.614,3.4-1.406,4.278-5,6l-1-4,3-5c-6.262-5.342-13.418-6-23-7v5c13.693,7.449,30.389,27.223,38,41v1c-11.01-2.876-19.813-13.777-27-21l-7,1q-1,4-2,8l-3-1c-7.288-6.144-29.728-22.485-21-31,3.7-7.963,3.914-9.48-1-17l-7,5c-0.422,14.54-.258,20.382,3,31-6.732-.293-7.936.388-11,6l5,9c-11.549,3.793-21.979,26.216-17,43h7l-4-10c3.006-3.2,3.75-7.9,8-10,4.97,9.5,15.965,13.33,20,24-5.367-1.188-8.517-3.929-12-7l-6,7c-2.756-2.1-1.565-2.614-5-2,3.192,4.34.884,7.741,4,14,4.58,9.2,40.482,30.814,52,35,21.23-13.427,66.927-26.576,81-45-3.66-12.643,8.08-12.209,4-24,2.189-1.962,3.194-2.282,7-3-1.29-3.961-1.881-3.4-4-6l8-4V195ZM222,137c2.4,3,2.427,4.994,0,8v-8Zm79,5-1,4h3Zm-29,1c0.534,5.542.906,5.438,4,8l7,6v-1C280.053,150.244,277.522,146.3,272,143Zm96,0v0ZM119,191c0.071,13.754,9.592,26.556,21,30l8-13c3.635,0.644,3.027.4,5,2l-9,11q1,2,2,4l2,3,13-1h-2c-1.868,2.262-1.817,1.4-3,5h2l11,2,3-6c7.761,3.328,14.542.229,20-4l4-7-2-1-4,4c-6.637,3.095-16.173,7.285-24,6q-0.5-1.5-1-3l2-1,9-2c-0.557-5.106-2.155-4.628,2-7,4.195,7.745,20.262.493,22-3l-3-5c-8.836-.786-18.516-6.825-25-6-6.333.806-10.966,7.153-20,6-6.333-5.211-8.135-14.346-14-20q0.5-1,1-2c9.508,2.113,6.988-2.811,12-6,2.646-1.683,11.36,1.659,15,1,1.162-9.08,6.554-12.323,11-18l-4-4-8,2-5,9-6-2q1-3.5,2-7c7.461-.131,9.713-1.839,15-4q-0.5-4.5-1-9a101.78,101.78,0,0,0-24,2c-0.6,12.917,3.283,13.143,4,25q-0.5,1-1,2l-3-2c-2.1-3.19-1.039-2.478-6-3l-4,1c-2.2,5.925-1.127,9.437-3,14-5.834-.56-7.264-1.592-10-5l-2,1v1l3,10h-5Zm189-44-4,3v3l2,1,3-1,3-5Zm-86,2c2.11,3.059,2.218,2.931,0,6q-0.5-1.5-1-3Q221.5,150.5,222,149Zm71,2v0Zm73,2,4,2-1,2-6-1v-1l1-1Zm-11,1,3,2-2,2-2-1Zm-41,1v0Zm-14,1,3,1Zm-94,1-10,3q-0.5,2.5-1,5c8.762,9.041,8.437,20.375,15,31l3-1c2.357-8.254,4.445-16.445,1-23l6-3C216,163.864,211.669,160.5,206,157Zm-68,1-5,7,2,3h6v-2q1-3,2-6C140.877,158.7,141.553,158.77,138,158Zm192,1,1,2C330.576,160.072,331.8,160.324,330,159Zm-149,3-14,19,6,14c11.914,1.862,22.558,8.5,32,3v-1C199.512,185.683,196.787,162.209,181,162Zm24,0c3.027,1.932,1.619.2,3,4l-4-1Q204.5,163.5,205,162Zm149,0,4,2-1,2-10-2Zm-60,1c4.948,0.815,2.978-.668,5,3l-5-1v-2Zm153,2,6,3-2,3-5,1-7-4C443.956,167.661,444.519,167.378,447,165Zm-321,2,2,3C126.741,166.977,128.018,168.8,126,167Zm83,0c3.827,1.321,2.08,0,4,3C209.173,168.679,210.92,170,209,167Zm133,0c3.027,1.932,1.619.2,3,4l-5,3-4,1-1-2C337.964,171.021,340.255,170.543,342,167Zm-116,1-5,4,10,11,2-1C233.785,171.689,233.646,171.37,226,168Zm120,4h4l-2,2Zm21,0,5,1Zm6,0,9,1C377.086,173.342,376.457,173.989,373,172Zm-38,5,2,5h-8l1-2Zm-18,3h2c-1.392,1.923-.1.6-2,2v-2Zm63,0,4,1v1C380.349,181.088,381.955,182.038,380,180Zm-160,1c-1.147,10.562-6.164,10.188-2,19l6-1c3.649-1.715,4.072-2.692,6-6C228.022,187.112,226.482,182.611,220,181Zm43,0h0Zm146,2-3,11,4,2,3-2,2-4C413.2,186.82,412.572,184.709,409,183Zm-283,8,3,3v1l-4-2Q125.5,192,126,191Zm4,7c5.686,1.467,7.511,1.957,8,9l-3,2-6-4Q129.5,201.5,130,198Zm285,2-1,1c3.052,3.418,5.583,4.6,8,9-4.307,3.968-5.01,4.121-8,10v-2q-1-6.5-2-13l-6-1-6,6v6l8,9h15a51.743,51.743,0,0,0,0-25h-8Zm-115,1c3.037,1.943,1.044.328,2,3Zm88,0h3v1l-3,1v-2Zm-220,3q1,2,2,4h-1l-2-2Q167.5,205,168,204Zm58,0c-1.427,1.339-1.76,1.247-3,3h6v-1Zm96,0,2,2-1,1Zm125,0,2,2-1,1Zm-275,4,3,3q-0.5,1-1,2l-3-3Q171.5,209,172,208Zm47,5-4,7c-3.632-2.529-8.585-4.6-13-1-4.518,3.1-10.474,9.868-9,16q-0.5,3.5-1,7c7.7,3.685,8.139,10.009,14,15h1c2.929-6.3,7.694-9.016,9-17-5.477,1.263-6.9,3.555-11,6l-2-2c2.063-2.212,1.382-1.882,5-3,2.656-4.976,7-15.958,11-21,2.412,4.8,2.029,4.4,6,3q-0.5-5-1-10h-5Zm136,12a24.78,24.78,0,0,1,15,9v2c-5.976,5.314-6.876,10.234-18,11l-10-6v-5c4.822,0.347,4.408.6,8-1Q352.5,230,355,225Zm46,14q1,3.5,2,7h-1l-3-3Zm-175,3-18,26,2,3h1C215.9,266.6,233.727,247.979,226,242Zm-39,3q-0.5,2-1,4c5.586,1.887,6.368,4.482,9,9l6-2v-1C194.53,251.862,194.316,246.906,187,245Zm-23,4c2.055,1.355,1.609,1.12,3,3l-2,2-3-2Zm242,1,3,3C405,251.579,407.208,252.588,406,250Zm0,12c-13.907-.747-17.237-5.366-28-8l-9,6,1,2c11.985,2.623,15.164,8.189,30,9,1.761-4.1.931-3.239,6-4v-5Zm-167-3-18,23v4c16.045,8.419,26.246,28.665,48,30l19-19-2-4-9,1C275.027,280.073,250.829,263.581,239,259Zm-92,4,3,2q-0.5,2-1,4h-2q-0.5-2-1-4Zm242,1,1,3h-1v-3Zm-88,6,7,2v2h-7l-2-1v-1Zm57,1c5.288,0.266,4.821-.232,7,3l1,4-1,1c-5.477.168-12.276-.241-15-3C356.363,275.794,356.21,275.7,358,271Zm-157,4c-8.5,17.14-24.129,27.91-34,43-17.8,27.216-39,51.021-59,76q1,2.5,2,5l4-4c15.878-10.454,29.166-36.112,40-52,15.765-23.118,40-40.985,53-67Zm205,0,1,3h-1l-1-1Zm-67,6,2,1Zm24,2,12,2c-2.918,2.707-3.105,1.69-4,7,3.651,1.059,2.941.814,5,3-11.424-2.236-13.772.076-26,1l-1-3v-1A30.728,30.728,0,0,0,363,283ZM92,288l5,1-3,3Zm234,0-1,1,3,2v-1Zm-22,4v6c6.427,7.74,8.678,4.75,16,10,4.14,2.968,3.27,11.676,12,16v-5l-21-27h-7Zm82,0,6,1c0.229,6.209-.237,11.4-2,15-5.8,1.273-18.089.312-25-3h3C371.706,295.969,379.858,297.656,386,292Zm-114,4,4,1-3,3-2-2Zm79,9,7,1v1h-7v-2Zm-150,1,2,1Zm5,2c-3.86,5.016-8.2,7.727-10,15l8,7-2,4c-4.806-2.645-5.117-4.563-8-9l-3,3c-11.065,6.424-51.612,58.59-49,71h9c9.5-4.663,67.2-73.061,71-85l-7-6h-9Zm-9,1,1,2C197.576,310.072,198.8,310.324,197,309Zm220,8,3,1-1,2h-1l-4-1Zm-232,5v0Zm62,0h0Zm-66,4q-0.5,2.5-1,5l2-1Q181.5,328,181,326Zm58,3c2.066,1.963,1.035.375,2,4-16.544,13.554-27.688,41.154-49,49l3-4C202.537,357.567,226.217,345.153,239,329Zm75,1,3,5-2,2h-2l-1-2Q313,332.5,314,330Zm-137,2-2,4h3v-4h-1Zm103,2h2c0.4,4.542,1.155,4.076-1,7-2.778-2.257-2.412-1.108-3-6Zm-108,4-1,1,1,2,2-2Zm-5,4v3l4-1v-1Zm-3,4q-0.5,2-1,4h1l2-4h-2Zm-4,4-6,11,2,1,7-10Zm-9,12q-0.5,2-1,4c4.2-1.537,2.448.184,4-4h-3Zm137,34c3.535,2.331,3.048,2.76,2,7h-1l-4-1ZM93,426l1,2Zm2,3,6,2q-0.5,2-1,4l-6,6-2-1v-8C94.7,430.4,93.378,431.661,95,429Z" transform="translate(-92 -54)"/>
</svg>
